<?xml version="1.0" encoding="utf-8"?>
<!-- Generator: Adobe Illustrator 25.0.1, SVG Export Plug-In . SVG Version: 6.00 Build 0)  -->
<svg version="1.1" id="Capa_1" xmlns="http://www.w3.org/2000/svg" xmlns:xlink="http://www.w3.org/1999/xlink" x="0px" y="0px"
	 viewBox="0 0 595.3 595.3" style="enable-background:new 0 0 595.3 595.3;" xml:space="preserve">
<style type="text/css">
	.st0{fill:#FFFFFF;}
</style>
<path class="st0" d="M0,104.5c0.6-1.4,1.2-2.7,1.7-4.2c5.2-15.7,18.9-25.9,35.4-26c11.8-0.1,23.6,0,35.4,0c161,0,321.9,0,482.9,0
	c20.2,0,35,11.3,38.9,29.7c4.7,22.1-11.7,43.4-34.3,44.6c-2.5,0.1-5,0.1-7.6,0.1c-168.5,0-337-0.2-505.6,0.3
	c-23.4,0.1-39.7-7.3-47-30.5C0,113.8,0,109.2,0,104.5z"/>
<path class="st0" d="M0,290.6c0.7-1.7,1.5-3.5,2.1-5.2c5.3-14.8,18.7-24.7,34.4-24.9c12.8-0.2,25.6-0.1,38.4-0.1
	c160.2,0,320.4,0,480.6,0c20.2,0,35,11.3,38.9,29.7c4.7,22.1-11.7,43.4-34.3,44.6c-2.5,0.1-5,0.1-7.6,0.1
	c-168.5,0-337-0.2-505.6,0.3c-23.4,0.1-39.7-7.3-47-30.5C0,299.9,0,295.2,0,290.6z"/>
<path class="st0" d="M0,476.6c0.7-1.7,1.5-3.5,2.1-5.2c5.3-14.8,18.7-24.7,34.4-24.9c12.8-0.2,25.6-0.1,38.4-0.1
	c160.2,0,320.4,0,480.6,0c20.2,0,35,11.3,38.9,29.7c4.7,22.1-11.7,43.4-34.3,44.6c-2.5,0.1-5,0.1-7.6,0.1
	c-168.5,0-337-0.2-505.6,0.3c-23.4,0.1-39.7-7.3-47-30.5C0,485.9,0,481.2,0,476.6z"/>
</svg>
